<svg width="20" height="20" viewBox="0 0 20 20" fill="none" xmlns="http://www.w3.org/2000/svg">
<circle cx="10" cy="10" r="10" fill="#F0BF02"/>
<path d="M14.7369 6.61975L10.1216 5.02052C10.0426 4.99316 9.95728 4.99316 9.87832 5.02052L5.26298 6.61975C5.1864 6.64629 5.11979 6.6972 5.07259 6.76528C5.02539 6.83336 4.99999 6.91515 5 6.99907V10.9971C5 11.1032 5.04052 11.2049 5.11265 11.2798C5.18478 11.3548 5.28261 11.3969 5.38461 11.3969C5.48662 11.3969 5.58445 11.3548 5.65657 11.2798C5.7287 11.2049 5.76922 11.1032 5.76922 10.9971V7.5538L7.38411 8.11303C6.95506 8.83358 6.81862 9.70168 7.00476 10.5267C7.1909 11.3517 7.6844 12.0663 8.37689 12.5134C7.51152 12.8662 6.76345 13.5044 6.21634 14.377C6.18788 14.421 6.16812 14.4704 6.15819 14.5223C6.14827 14.5743 6.14838 14.6278 6.15852 14.6797C6.16866 14.7317 6.18863 14.781 6.21727 14.8248C6.2459 14.8686 6.28263 14.9061 6.32533 14.9351C6.36802 14.964 6.41582 14.9838 6.46595 14.9934C6.51609 15.003 6.61735 14.9908 6.61735 14.9908C6.61735 14.9908 6.7143 14.9581 6.75605 14.9277C6.7978 14.8973 6.83333 14.8586 6.86056 14.8138C7.58507 13.6584 8.72929 12.9962 9.99996 12.9962C11.2706 12.9962 12.4148 13.6584 13.1394 14.8138C13.1958 14.901 13.2829 14.9615 13.3819 14.9824C13.481 15.0033 13.5839 14.9829 13.6686 14.9255C13.7532 14.8681 13.8127 14.7784 13.8342 14.6758C13.8558 14.5731 13.8376 14.4658 13.7836 14.377C13.2365 13.5044 12.4855 12.8662 11.623 12.5134C12.3149 12.0663 12.8079 11.3522 12.994 10.5278C13.1801 9.70337 13.0441 8.83587 12.6158 8.11553L14.7369 7.38088C14.8135 7.35436 14.8802 7.30345 14.9274 7.23537C14.9746 7.16729 15 7.08549 15 7.00156C15 6.91764 14.9746 6.83584 14.9274 6.76776C14.8802 6.69968 14.8135 6.64877 14.7369 6.62225V6.61975Z" fill="white"/>
</svg>
