<svg width="16" height="16" viewBox="0 0 16 16" fill="none" xmlns="http://www.w3.org/2000/svg">
<path d="M14.6667 1.23077H12.6667V0.615385C12.6667 0.452174 12.5964 0.295649 12.4714 0.180242C12.3464 0.064835 12.1768 0 12 0C11.8232 0 11.6536 0.064835 11.5286 0.180242C11.4036 0.295649 11.3333 0.452174 11.3333 0.615385V1.23077H4.66667V0.615385C4.66667 0.452174 4.59643 0.295649 4.4714 0.180242C4.34638 0.064835 4.17681 0 4 0C3.82319 0 3.65362 0.064835 3.5286 0.180242C3.40357 0.295649 3.33333 0.452174 3.33333 0.615385V1.23077H1.33333C0.979711 1.23077 0.640573 1.36044 0.390524 1.59125C0.140476 1.82207 0 2.13512 0 2.46154V14.7692C0 15.0957 0.140476 15.4087 0.390524 15.6395C0.640573 15.8703 0.979711 16 1.33333 16H14.6667C15.0203 16 15.3594 15.8703 15.6095 15.6395C15.8595 15.4087 16 15.0957 16 14.7692V2.46154C16 2.13512 15.8595 1.82207 15.6095 1.59125C15.3594 1.36044 15.0203 1.23077 14.6667 1.23077ZM4.33333 12.9231C4.13555 12.9231 3.94221 12.8689 3.77776 12.7675C3.61331 12.6661 3.48514 12.5219 3.40945 12.3532C3.33377 12.1846 3.31396 11.999 3.35255 11.8199C3.39113 11.6409 3.48637 11.4764 3.62623 11.3473C3.76608 11.2182 3.94426 11.1303 4.13824 11.0947C4.33222 11.059 4.53329 11.0773 4.71602 11.1472C4.89874 11.2171 5.05492 11.3354 5.1648 11.4872C5.27468 11.639 5.33333 11.8174 5.33333 12C5.33333 12.2448 5.22798 12.4796 5.04044 12.6527C4.8529 12.8258 4.59855 12.9231 4.33333 12.9231ZM8 12.9231C7.80222 12.9231 7.60888 12.8689 7.44443 12.7675C7.27998 12.6661 7.15181 12.5219 7.07612 12.3532C7.00043 12.1846 6.98063 11.999 7.01921 11.8199C7.0578 11.6409 7.15304 11.4764 7.29289 11.3473C7.43275 11.2182 7.61093 11.1303 7.80491 11.0947C7.99889 11.059 8.19996 11.0773 8.38268 11.1472C8.56541 11.2171 8.72159 11.3354 8.83147 11.4872C8.94135 11.639 9 11.8174 9 12C9 12.2448 8.89464 12.4796 8.70711 12.6527C8.51957 12.8258 8.26522 12.9231 8 12.9231ZM8 9.84615C7.80222 9.84615 7.60888 9.79202 7.44443 9.69059C7.27998 9.58916 7.15181 9.44499 7.07612 9.27632C7.00043 9.10765 6.98063 8.92205 7.01921 8.74299C7.0578 8.56393 7.15304 8.39946 7.29289 8.27036C7.43275 8.14127 7.61093 8.05335 7.80491 8.01774C7.99889 7.98212 8.19996 8.0004 8.38268 8.07026C8.56541 8.14013 8.72159 8.25844 8.83147 8.41024C8.94135 8.56204 9 8.74051 9 8.92308C9 9.16789 8.89464 9.40268 8.70711 9.57579C8.51957 9.7489 8.26522 9.84615 8 9.84615ZM11.6667 12.9231C11.4689 12.9231 11.2755 12.8689 11.1111 12.7675C10.9466 12.6661 10.8185 12.5219 10.7428 12.3532C10.6671 12.1846 10.6473 11.999 10.6859 11.8199C10.7245 11.6409 10.8197 11.4764 10.9596 11.3473C11.0994 11.2182 11.2776 11.1303 11.4716 11.0947C11.6656 11.059 11.8666 11.0773 12.0493 11.1472C12.2321 11.2171 12.3883 11.3354 12.4981 11.4872C12.608 11.639 12.6667 11.8174 12.6667 12C12.6667 12.2448 12.5613 12.4796 12.3738 12.6527C12.1862 12.8258 11.9319 12.9231 11.6667 12.9231ZM11.6667 9.84615C11.4689 9.84615 11.2755 9.79202 11.1111 9.69059C10.9466 9.58916 10.8185 9.44499 10.7428 9.27632C10.6671 9.10765 10.6473 8.92205 10.6859 8.74299C10.7245 8.56393 10.8197 8.39946 10.9596 8.27036C11.0994 8.14127 11.2776 8.05335 11.4716 8.01774C11.6656 7.98212 11.8666 8.0004 12.0493 8.07026C12.2321 8.14013 12.3883 8.25844 12.4981 8.41024C12.608 8.56204 12.6667 8.74051 12.6667 8.92308C12.6667 9.16789 12.5613 9.40268 12.3738 9.57579C12.1862 9.7489 11.9319 9.84615 11.6667 9.84615ZM14.6667 4.92308H1.33333V2.46154H3.33333V3.07692C3.33333 3.24013 3.40357 3.39666 3.5286 3.51207C3.65362 3.62747 3.82319 3.69231 4 3.69231C4.17681 3.69231 4.34638 3.62747 4.4714 3.51207C4.59643 3.39666 4.66667 3.24013 4.66667 3.07692V2.46154H11.3333V3.07692C11.3333 3.24013 11.4036 3.39666 11.5286 3.51207C11.6536 3.62747 11.8232 3.69231 12 3.69231C12.1768 3.69231 12.3464 3.62747 12.4714 3.51207C12.5964 3.39666 12.6667 3.24013 12.6667 3.07692V2.46154H14.6667V4.92308Z" fill="#B01718"/>
</svg>
