<svg width="20" height="18" viewBox="0 0 20 18" fill="none" xmlns="http://www.w3.org/2000/svg">
<path d="M6.75 6.92719L7.78687 9H5.71313L6.75 6.92719ZM19.5 1.5V16.5C19.5001 16.6279 19.4675 16.7537 19.4052 16.8655C19.343 16.9772 19.2532 17.0712 19.1444 17.1384C19.0356 17.2057 18.9114 17.244 18.7837 17.2498C18.6559 17.2555 18.5288 17.2285 18.4144 17.1713L15.75 15.8381L13.0856 17.1713C12.9814 17.2234 12.8665 17.2505 12.75 17.2505C12.6335 17.2505 12.5186 17.2234 12.4144 17.1713L9.75 15.8381L7.08563 17.1713C6.98143 17.2234 6.86651 17.2505 6.75 17.2505C6.63349 17.2505 6.51857 17.2234 6.41437 17.1713L3.75 15.8381L1.08563 17.1713C0.971239 17.2285 0.844114 17.2555 0.716335 17.2498C0.588555 17.244 0.464367 17.2057 0.355575 17.1384C0.246783 17.0712 0.157003 16.9772 0.0947669 16.8655C0.0325312 16.7537 -9.14151e-05 16.6279 1.92401e-07 16.5V1.5C1.92401e-07 1.10218 0.158035 0.720644 0.43934 0.43934C0.720644 0.158035 1.10218 0 1.5 0H18C18.3978 0 18.7794 0.158035 19.0607 0.43934C19.342 0.720644 19.5 1.10218 19.5 1.5ZM10.4213 10.9144L7.42125 4.91437C7.35905 4.78957 7.26328 4.68458 7.14471 4.61119C7.02613 4.5378 6.88945 4.49892 6.75 4.49892C6.61055 4.49892 6.47387 4.5378 6.35529 4.61119C6.23672 4.68458 6.14095 4.78957 6.07875 4.91437L3.07875 10.9144C2.98974 11.0924 2.97509 11.2985 3.03803 11.4873C3.10097 11.6761 3.23635 11.8322 3.41438 11.9213C3.5924 12.0103 3.7985 12.0249 3.98732 11.962C4.17615 11.899 4.33224 11.7637 4.42125 11.5856L4.96313 10.5H8.53687L9.07875 11.5856C9.12282 11.6738 9.18383 11.7524 9.25828 11.817C9.33274 11.8815 9.41918 11.9308 9.51268 11.962C9.60617 11.9931 9.70489 12.0056 9.8032 11.9986C9.90151 11.9916 9.99748 11.9653 10.0856 11.9213C10.1738 11.8772 10.2524 11.8162 10.317 11.7417C10.3815 11.6673 10.4308 11.5808 10.462 11.4873C10.4931 11.3938 10.5056 11.2951 10.4986 11.1968C10.4916 11.0985 10.4653 11.0025 10.4213 10.9144ZM17.25 8.25C17.25 8.05109 17.171 7.86032 17.0303 7.71967C16.8897 7.57902 16.6989 7.5 16.5 7.5H15V6C15 5.80109 14.921 5.61032 14.7803 5.46967C14.6397 5.32902 14.4489 5.25 14.25 5.25C14.0511 5.25 13.8603 5.32902 13.7197 5.46967C13.579 5.61032 13.5 5.80109 13.5 6V7.5H12C11.8011 7.5 11.6103 7.57902 11.4697 7.71967C11.329 7.86032 11.25 8.05109 11.25 8.25C11.25 8.44891 11.329 8.63968 11.4697 8.78033C11.6103 8.92098 11.8011 9 12 9H13.5V10.5C13.5 10.6989 13.579 10.8897 13.7197 11.0303C13.8603 11.171 14.0511 11.25 14.25 11.25C14.4489 11.25 14.6397 11.171 14.7803 11.0303C14.921 10.8897 15 10.6989 15 10.5V9H16.5C16.6989 9 16.8897 8.92098 17.0303 8.78033C17.171 8.63968 17.25 8.44891 17.25 8.25Z" fill="#077E98"/>
</svg>
