<svg width="19" height="21" viewBox="0 0 19 21" fill="none" xmlns="http://www.w3.org/2000/svg">
<path d="M9.00016 5.24276C9.00016 5.09443 9.04414 4.94942 9.12655 4.82609C9.20897 4.70275 9.3261 4.60662 9.46314 4.54985C9.60019 4.49309 9.75099 4.47824 9.89648 4.50717C10.042 4.53611 10.1756 4.60754 10.2805 4.71243C10.3854 4.81732 10.4568 4.95096 10.4857 5.09645C10.5147 5.24193 10.4998 5.39273 10.4431 5.52978C10.3863 5.66682 10.2902 5.78395 10.1668 5.86637C10.0435 5.94878 9.89849 5.99276 9.75016 5.99276C9.55124 5.99276 9.36048 5.91375 9.21983 5.77309C9.07917 5.63244 9.00016 5.44168 9.00016 5.24276ZM11.2502 11.2428C11.2502 11.3911 11.2941 11.5361 11.3766 11.6594C11.459 11.7828 11.5761 11.8789 11.7131 11.9357C11.8502 11.9924 12.001 12.0073 12.1465 11.9784C12.292 11.9494 12.4256 11.878 12.5305 11.7731C12.6354 11.6682 12.7068 11.5346 12.7357 11.3891C12.7647 11.2436 12.7498 11.0928 12.6931 10.9558C12.6363 10.8187 12.5402 10.7016 12.4168 10.6192C12.2935 10.5367 12.1485 10.4928 12.0002 10.4928C11.8012 10.4928 11.6105 10.5718 11.4698 10.7124C11.3292 10.8531 11.2502 11.0439 11.2502 11.2428ZM15.797 14.5681C16.7461 13.7711 17.5041 12.7712 18.0152 11.6422C18.5263 10.5133 18.7775 9.28394 18.7502 8.04495C18.7502 7.9762 18.7473 7.90776 18.7417 7.83964C18.7358 7.7443 18.6936 7.65483 18.6239 7.5895C18.5542 7.52417 18.4622 7.48789 18.3667 7.48808H16.1017L13.9333 10.0896C14.2041 10.5461 14.3049 11.0836 14.2177 11.6072C14.1306 12.1308 13.8611 12.6067 13.457 12.9508C13.0529 13.295 12.5401 13.4851 12.0093 13.4878C11.4786 13.4904 10.964 13.3053 10.5565 12.9651C10.149 12.625 9.87486 12.1518 9.78255 11.6291C9.69025 11.1064 9.7857 10.5679 10.052 10.1088C10.3184 9.64963 10.7385 9.29945 11.238 9.12011C11.7376 8.94076 12.2845 8.94381 12.782 9.1287L15.1736 6.25808C15.2445 6.17439 15.3328 6.10727 15.4324 6.06143C15.532 6.01559 15.6405 5.99215 15.7502 5.99276H17.9195C17.9797 5.99283 18.039 5.97843 18.0924 5.95075C18.1459 5.92308 18.1919 5.88296 18.2265 5.83377C18.2612 5.78459 18.2835 5.72778 18.2916 5.66816C18.2997 5.60854 18.2933 5.54784 18.273 5.4912C17.1817 2.43026 14.3308 0.180264 10.9445 0.000263784H10.8892C10.8388 -0.00162817 10.7885 0.00667261 10.7414 0.0246692C10.6943 0.0426658 10.6512 0.0699881 10.6149 0.105C10.5786 0.140013 10.5497 0.181995 10.53 0.228433C10.5103 0.274872 10.5001 0.324812 10.5002 0.375264V3.11745C11.0006 3.29437 11.4223 3.6425 11.6909 4.10031C11.9594 4.55812 12.0575 5.09613 11.9678 5.61925C11.878 6.14237 11.6062 6.61692 11.2004 6.95903C10.7946 7.30114 10.2809 7.48877 9.75016 7.48877C9.21939 7.48877 8.70571 7.30114 8.29991 6.95903C7.89411 6.61692 7.62231 6.14237 7.53256 5.61925C7.44281 5.09613 7.54088 4.55812 7.80943 4.10031C8.07799 3.6425 8.49975 3.29437 9.00016 3.11745V0.586201C9.0003 0.529784 8.98771 0.474062 8.96333 0.423184C8.93895 0.372307 8.90341 0.327587 8.85935 0.292354C8.81528 0.257121 8.76384 0.232285 8.70884 0.219695C8.65385 0.207105 8.59672 0.207086 8.54172 0.219639C6.77773 0.652859 5.20558 1.65512 4.06834 3.07146C2.93109 4.4878 2.2921 6.23934 2.25016 8.05526L0.145469 12.0996L0.124844 12.1418C-0.0285608 12.4939 -0.0410563 12.8915 0.0899326 13.2525C0.220921 13.6136 0.485414 13.9106 0.828907 14.0825L0.852344 14.0937L3.00016 15.0771V17.9834C3.00016 18.3812 3.15819 18.7627 3.4395 19.0441C3.7208 19.3254 4.10233 19.4834 4.50016 19.4834H8.25016V20.2334C8.25016 20.4323 8.32917 20.6231 8.46983 20.7637C8.61048 20.9044 8.80124 20.9834 9.00016 20.9834H15.7286C15.8613 20.9846 15.9922 20.9524 16.1092 20.8896C16.2412 20.8177 16.3485 20.7077 16.4173 20.5739C16.486 20.4402 16.5129 20.2889 16.4945 20.1396L15.797 14.5681Z" fill="#077E98"/>
</svg>
